<mxfile host="app.diagrams.net" modified="2023-10-16T14:52:06.040Z" agent="Mozilla/5.0 (X11; Linux x86_64) AppleWebKit/537.36 (KHTML, like Gecko) Chrome/113.0.0.0 Safari/537.36" etag="dCjOHIqv2Rg-nneVvBSi" version="22.0.4" type="device">
  <diagram id="R2lEEEUBdFMjLlhIrx00" name="Page-1">
    <mxGraphModel dx="806" dy="495" grid="1" gridSize="10" guides="1" tooltips="1" connect="1" arrows="1" fold="1" page="1" pageScale="1" pageWidth="850" pageHeight="1100" math="0" shadow="0" extFonts="Permanent Marker^https://fonts.googleapis.com/css?family=Permanent+Marker">
      <root>
        <mxCell id="0" />
        <mxCell id="1" parent="0" />
        <mxCell id="VEQ9uskIoEQG_5lfTTBm-1" value="Jugador" style="rounded=0;whiteSpace=wrap;html=1;" parent="1" vertex="1">
          <mxGeometry x="260" y="70" width="120" height="60" as="geometry" />
        </mxCell>
        <mxCell id="VEQ9uskIoEQG_5lfTTBm-22" style="edgeStyle=orthogonalEdgeStyle;rounded=0;orthogonalLoop=1;jettySize=auto;html=1;entryX=0.75;entryY=0;entryDx=0;entryDy=0;" parent="1" source="VEQ9uskIoEQG_5lfTTBm-3" target="VEQ9uskIoEQG_5lfTTBm-1" edge="1">
          <mxGeometry relative="1" as="geometry" />
        </mxCell>
        <mxCell id="VEQ9uskIoEQG_5lfTTBm-3" value="DataNeix" style="ellipse;whiteSpace=wrap;html=1;" parent="1" vertex="1">
          <mxGeometry x="315" width="110" height="30" as="geometry" />
        </mxCell>
        <mxCell id="VEQ9uskIoEQG_5lfTTBm-20" style="edgeStyle=orthogonalEdgeStyle;rounded=0;orthogonalLoop=1;jettySize=auto;html=1;exitX=1;exitY=1;exitDx=0;exitDy=0;entryX=0;entryY=0.5;entryDx=0;entryDy=0;" parent="1" source="VEQ9uskIoEQG_5lfTTBm-4" target="VEQ9uskIoEQG_5lfTTBm-1" edge="1">
          <mxGeometry relative="1" as="geometry" />
        </mxCell>
        <mxCell id="VEQ9uskIoEQG_5lfTTBm-4" value="&lt;u&gt;Id_jugador&lt;/u&gt;" style="ellipse;whiteSpace=wrap;html=1;" parent="1" vertex="1">
          <mxGeometry x="90" y="30" width="110" height="30" as="geometry" />
        </mxCell>
        <mxCell id="VEQ9uskIoEQG_5lfTTBm-21" style="edgeStyle=orthogonalEdgeStyle;rounded=0;orthogonalLoop=1;jettySize=auto;html=1;exitX=0.5;exitY=1;exitDx=0;exitDy=0;entryX=0.25;entryY=0;entryDx=0;entryDy=0;" parent="1" source="VEQ9uskIoEQG_5lfTTBm-5" target="VEQ9uskIoEQG_5lfTTBm-1" edge="1">
          <mxGeometry relative="1" as="geometry" />
        </mxCell>
        <mxCell id="VEQ9uskIoEQG_5lfTTBm-5" value="Nom" style="ellipse;whiteSpace=wrap;html=1;rotation=0;" parent="1" vertex="1">
          <mxGeometry x="190" width="110" height="30" as="geometry" />
        </mxCell>
        <mxCell id="VEQ9uskIoEQG_5lfTTBm-23" style="edgeStyle=orthogonalEdgeStyle;rounded=0;orthogonalLoop=1;jettySize=auto;html=1;exitX=0.5;exitY=1;exitDx=0;exitDy=0;entryX=1;entryY=0.25;entryDx=0;entryDy=0;" parent="1" source="VEQ9uskIoEQG_5lfTTBm-6" target="VEQ9uskIoEQG_5lfTTBm-1" edge="1">
          <mxGeometry relative="1" as="geometry">
            <Array as="points">
              <mxPoint x="485" y="50" />
              <mxPoint x="380" y="50" />
            </Array>
          </mxGeometry>
        </mxCell>
        <mxCell id="VEQ9uskIoEQG_5lfTTBm-6" value="Posició" style="ellipse;whiteSpace=wrap;html=1;" parent="1" vertex="1">
          <mxGeometry x="430" width="110" height="30" as="geometry" />
        </mxCell>
        <mxCell id="VEQ9uskIoEQG_5lfTTBm-12" value="Equip" style="rounded=0;whiteSpace=wrap;html=1;" parent="1" vertex="1">
          <mxGeometry x="170" y="300" width="120" height="60" as="geometry" />
        </mxCell>
        <mxCell id="VEQ9uskIoEQG_5lfTTBm-29" style="edgeStyle=orthogonalEdgeStyle;rounded=0;orthogonalLoop=1;jettySize=auto;html=1;exitX=1;exitY=0.5;exitDx=0;exitDy=0;entryX=0;entryY=0.5;entryDx=0;entryDy=0;" parent="1" source="VEQ9uskIoEQG_5lfTTBm-14" target="VEQ9uskIoEQG_5lfTTBm-12" edge="1">
          <mxGeometry relative="1" as="geometry" />
        </mxCell>
        <mxCell id="VEQ9uskIoEQG_5lfTTBm-14" value="Aforament" style="ellipse;whiteSpace=wrap;html=1;" parent="1" vertex="1">
          <mxGeometry x="10" y="330" width="110" height="30" as="geometry" />
        </mxCell>
        <mxCell id="VEQ9uskIoEQG_5lfTTBm-28" style="edgeStyle=orthogonalEdgeStyle;rounded=0;orthogonalLoop=1;jettySize=auto;html=1;exitX=1;exitY=0.5;exitDx=0;exitDy=0;entryX=0;entryY=0.25;entryDx=0;entryDy=0;" parent="1" source="VEQ9uskIoEQG_5lfTTBm-15" target="VEQ9uskIoEQG_5lfTTBm-12" edge="1">
          <mxGeometry relative="1" as="geometry" />
        </mxCell>
        <mxCell id="VEQ9uskIoEQG_5lfTTBm-15" value="Estadi" style="ellipse;whiteSpace=wrap;html=1;" parent="1" vertex="1">
          <mxGeometry x="10" y="290" width="110" height="30" as="geometry" />
        </mxCell>
        <mxCell id="VEQ9uskIoEQG_5lfTTBm-27" style="edgeStyle=orthogonalEdgeStyle;rounded=0;orthogonalLoop=1;jettySize=auto;html=1;exitX=1;exitY=0.5;exitDx=0;exitDy=0;entryX=0.25;entryY=0;entryDx=0;entryDy=0;" parent="1" source="VEQ9uskIoEQG_5lfTTBm-16" target="VEQ9uskIoEQG_5lfTTBm-12" edge="1">
          <mxGeometry relative="1" as="geometry" />
        </mxCell>
        <mxCell id="VEQ9uskIoEQG_5lfTTBm-16" value="Nom_equip" style="ellipse;whiteSpace=wrap;html=1;" parent="1" vertex="1">
          <mxGeometry x="20" y="250" width="110" height="30" as="geometry" />
        </mxCell>
        <mxCell id="VEQ9uskIoEQG_5lfTTBm-30" style="edgeStyle=orthogonalEdgeStyle;rounded=0;orthogonalLoop=1;jettySize=auto;html=1;exitX=1;exitY=0.5;exitDx=0;exitDy=0;entryX=0;entryY=0.75;entryDx=0;entryDy=0;" parent="1" source="VEQ9uskIoEQG_5lfTTBm-17" target="VEQ9uskIoEQG_5lfTTBm-12" edge="1">
          <mxGeometry relative="1" as="geometry" />
        </mxCell>
        <mxCell id="VEQ9uskIoEQG_5lfTTBm-17" value="AnyFundació" style="ellipse;whiteSpace=wrap;html=1;" parent="1" vertex="1">
          <mxGeometry x="10" y="370" width="110" height="30" as="geometry" />
        </mxCell>
        <mxCell id="VEQ9uskIoEQG_5lfTTBm-31" style="edgeStyle=orthogonalEdgeStyle;rounded=0;orthogonalLoop=1;jettySize=auto;html=1;exitX=1;exitY=0;exitDx=0;exitDy=0;entryX=0;entryY=1;entryDx=0;entryDy=0;" parent="1" source="VEQ9uskIoEQG_5lfTTBm-18" target="VEQ9uskIoEQG_5lfTTBm-12" edge="1">
          <mxGeometry relative="1" as="geometry" />
        </mxCell>
        <mxCell id="VEQ9uskIoEQG_5lfTTBm-18" value="Ciutat" style="ellipse;whiteSpace=wrap;html=1;" parent="1" vertex="1">
          <mxGeometry x="30" y="420" width="110" height="30" as="geometry" />
        </mxCell>
        <mxCell id="VEQ9uskIoEQG_5lfTTBm-32" style="edgeStyle=orthogonalEdgeStyle;rounded=0;orthogonalLoop=1;jettySize=auto;html=1;exitX=0.5;exitY=0;exitDx=0;exitDy=0;entryX=0.25;entryY=1;entryDx=0;entryDy=0;" parent="1" source="VEQ9uskIoEQG_5lfTTBm-24" target="VEQ9uskIoEQG_5lfTTBm-12" edge="1">
          <mxGeometry relative="1" as="geometry" />
        </mxCell>
        <mxCell id="VEQ9uskIoEQG_5lfTTBm-24" value="&lt;u&gt;Id_equip&lt;/u&gt;" style="ellipse;whiteSpace=wrap;html=1;" parent="1" vertex="1">
          <mxGeometry x="160" y="440" width="110" height="30" as="geometry" />
        </mxCell>
        <mxCell id="VEQ9uskIoEQG_5lfTTBm-25" value="Partit" style="rounded=0;whiteSpace=wrap;html=1;" parent="1" vertex="1">
          <mxGeometry x="640" y="135" width="120" height="60" as="geometry" />
        </mxCell>
        <mxCell id="VEQ9uskIoEQG_5lfTTBm-26" value="Presidents" style="rounded=0;whiteSpace=wrap;html=1;" parent="1" vertex="1">
          <mxGeometry x="550" y="370" width="120" height="60" as="geometry" />
        </mxCell>
        <mxCell id="VEQ9uskIoEQG_5lfTTBm-41" style="edgeStyle=orthogonalEdgeStyle;rounded=0;orthogonalLoop=1;jettySize=auto;html=1;exitX=0.5;exitY=1;exitDx=0;exitDy=0;entryX=0.5;entryY=0;entryDx=0;entryDy=0;" parent="1" source="VEQ9uskIoEQG_5lfTTBm-34" target="VEQ9uskIoEQG_5lfTTBm-25" edge="1">
          <mxGeometry relative="1" as="geometry" />
        </mxCell>
        <mxCell id="VEQ9uskIoEQG_5lfTTBm-34" value="Data" style="ellipse;whiteSpace=wrap;html=1;" parent="1" vertex="1">
          <mxGeometry x="730" y="60" width="110" height="30" as="geometry" />
        </mxCell>
        <mxCell id="YNiEhLIQ4IZaoLBRzySC-3" style="edgeStyle=orthogonalEdgeStyle;rounded=0;orthogonalLoop=1;jettySize=auto;html=1;exitX=0.5;exitY=0;exitDx=0;exitDy=0;entryX=1;entryY=1;entryDx=0;entryDy=0;" edge="1" parent="1" source="VEQ9uskIoEQG_5lfTTBm-35" target="VEQ9uskIoEQG_5lfTTBm-40">
          <mxGeometry relative="1" as="geometry" />
        </mxCell>
        <mxCell id="VEQ9uskIoEQG_5lfTTBm-35" value="Gols_local" style="ellipse;whiteSpace=wrap;html=1;" parent="1" vertex="1">
          <mxGeometry x="470" y="180" width="110" height="30" as="geometry" />
        </mxCell>
        <mxCell id="YNiEhLIQ4IZaoLBRzySC-5" style="edgeStyle=orthogonalEdgeStyle;rounded=0;orthogonalLoop=1;jettySize=auto;html=1;exitX=0.5;exitY=1;exitDx=0;exitDy=0;entryX=0;entryY=0;entryDx=0;entryDy=0;" edge="1" parent="1" source="VEQ9uskIoEQG_5lfTTBm-36" target="VEQ9uskIoEQG_5lfTTBm-40">
          <mxGeometry relative="1" as="geometry" />
        </mxCell>
        <mxCell id="VEQ9uskIoEQG_5lfTTBm-36" value="Gols_visitant" style="ellipse;whiteSpace=wrap;html=1;" parent="1" vertex="1">
          <mxGeometry x="430" y="70" width="110" height="30" as="geometry" />
        </mxCell>
        <mxCell id="YNiEhLIQ4IZaoLBRzySC-1" style="edgeStyle=orthogonalEdgeStyle;rounded=0;orthogonalLoop=1;jettySize=auto;html=1;exitX=0;exitY=0.5;exitDx=0;exitDy=0;entryX=1;entryY=0.5;entryDx=0;entryDy=0;" edge="1" parent="1" source="VEQ9uskIoEQG_5lfTTBm-37" target="VEQ9uskIoEQG_5lfTTBm-25">
          <mxGeometry relative="1" as="geometry" />
        </mxCell>
        <mxCell id="VEQ9uskIoEQG_5lfTTBm-37" value="&lt;u&gt;Id_partit&lt;/u&gt;" style="ellipse;whiteSpace=wrap;html=1;" parent="1" vertex="1">
          <mxGeometry x="820" y="105" width="110" height="30" as="geometry" />
        </mxCell>
        <mxCell id="VEQ9uskIoEQG_5lfTTBm-40" value="Gols" style="rhombus;whiteSpace=wrap;html=1;" parent="1" vertex="1">
          <mxGeometry x="450" y="120" width="110" height="40" as="geometry" />
        </mxCell>
        <mxCell id="YNiEhLIQ4IZaoLBRzySC-2" style="edgeStyle=orthogonalEdgeStyle;rounded=0;orthogonalLoop=1;jettySize=auto;html=1;exitX=1;exitY=0;exitDx=0;exitDy=0;entryX=0;entryY=1;entryDx=0;entryDy=0;" edge="1" parent="1" source="VEQ9uskIoEQG_5lfTTBm-46" target="VEQ9uskIoEQG_5lfTTBm-40">
          <mxGeometry relative="1" as="geometry" />
        </mxCell>
        <mxCell id="VEQ9uskIoEQG_5lfTTBm-46" value="Min_gol" style="ellipse;whiteSpace=wrap;html=1;" parent="1" vertex="1">
          <mxGeometry x="360" y="160" width="110" height="30" as="geometry" />
        </mxCell>
        <mxCell id="YNiEhLIQ4IZaoLBRzySC-4" style="edgeStyle=orthogonalEdgeStyle;rounded=0;orthogonalLoop=1;jettySize=auto;html=1;exitX=0;exitY=0.5;exitDx=0;exitDy=0;entryX=1;entryY=0;entryDx=0;entryDy=0;" edge="1" parent="1" source="VEQ9uskIoEQG_5lfTTBm-47" target="VEQ9uskIoEQG_5lfTTBm-40">
          <mxGeometry relative="1" as="geometry" />
        </mxCell>
        <mxCell id="VEQ9uskIoEQG_5lfTTBm-47" value="DescripcióGol" style="ellipse;whiteSpace=wrap;html=1;fontStyle=0" parent="1" vertex="1">
          <mxGeometry x="560" y="100" width="110" height="30" as="geometry" />
        </mxCell>
        <mxCell id="VEQ9uskIoEQG_5lfTTBm-61" style="edgeStyle=orthogonalEdgeStyle;rounded=0;orthogonalLoop=1;jettySize=auto;html=1;exitX=0;exitY=0.5;exitDx=0;exitDy=0;entryX=1;entryY=0.25;entryDx=0;entryDy=0;" parent="1" source="VEQ9uskIoEQG_5lfTTBm-50" target="VEQ9uskIoEQG_5lfTTBm-26" edge="1">
          <mxGeometry relative="1" as="geometry">
            <Array as="points">
              <mxPoint x="700" y="390" />
              <mxPoint x="670" y="390" />
            </Array>
          </mxGeometry>
        </mxCell>
        <mxCell id="VEQ9uskIoEQG_5lfTTBm-50" value="Cognoms" style="ellipse;whiteSpace=wrap;html=1;" parent="1" vertex="1">
          <mxGeometry x="720" y="370" width="110" height="30" as="geometry" />
        </mxCell>
        <mxCell id="VEQ9uskIoEQG_5lfTTBm-62" style="edgeStyle=orthogonalEdgeStyle;rounded=0;orthogonalLoop=1;jettySize=auto;html=1;exitX=0;exitY=0.5;exitDx=0;exitDy=0;entryX=1;entryY=1;entryDx=0;entryDy=0;" parent="1" source="VEQ9uskIoEQG_5lfTTBm-51" target="VEQ9uskIoEQG_5lfTTBm-26" edge="1">
          <mxGeometry relative="1" as="geometry">
            <Array as="points">
              <mxPoint x="690" y="425" />
              <mxPoint x="690" y="430" />
            </Array>
          </mxGeometry>
        </mxCell>
        <mxCell id="VEQ9uskIoEQG_5lfTTBm-51" value="&lt;u&gt;DNI&lt;/u&gt;" style="ellipse;whiteSpace=wrap;html=1;" parent="1" vertex="1">
          <mxGeometry x="710" y="410" width="110" height="30" as="geometry" />
        </mxCell>
        <mxCell id="VEQ9uskIoEQG_5lfTTBm-63" style="edgeStyle=orthogonalEdgeStyle;rounded=0;orthogonalLoop=1;jettySize=auto;html=1;exitX=0;exitY=0;exitDx=0;exitDy=0;entryX=0.75;entryY=1;entryDx=0;entryDy=0;" parent="1" source="VEQ9uskIoEQG_5lfTTBm-52" target="VEQ9uskIoEQG_5lfTTBm-26" edge="1">
          <mxGeometry relative="1" as="geometry">
            <Array as="points">
              <mxPoint x="676" y="440" />
              <mxPoint x="640" y="440" />
            </Array>
          </mxGeometry>
        </mxCell>
        <mxCell id="VEQ9uskIoEQG_5lfTTBm-52" value="DataNeix" style="ellipse;whiteSpace=wrap;html=1;" parent="1" vertex="1">
          <mxGeometry x="660" y="450" width="110" height="30" as="geometry" />
        </mxCell>
        <mxCell id="VEQ9uskIoEQG_5lfTTBm-65" style="edgeStyle=orthogonalEdgeStyle;rounded=0;orthogonalLoop=1;jettySize=auto;html=1;exitX=0.5;exitY=0;exitDx=0;exitDy=0;entryX=0.5;entryY=1;entryDx=0;entryDy=0;" parent="1" source="VEQ9uskIoEQG_5lfTTBm-53" target="VEQ9uskIoEQG_5lfTTBm-26" edge="1">
          <mxGeometry relative="1" as="geometry" />
        </mxCell>
        <mxCell id="VEQ9uskIoEQG_5lfTTBm-53" value="AnyTriat" style="ellipse;whiteSpace=wrap;html=1;" parent="1" vertex="1">
          <mxGeometry x="570" y="470" width="110" height="30" as="geometry" />
        </mxCell>
        <mxCell id="VEQ9uskIoEQG_5lfTTBm-66" style="edgeStyle=orthogonalEdgeStyle;rounded=0;orthogonalLoop=1;jettySize=auto;html=1;exitX=1;exitY=0;exitDx=0;exitDy=0;entryX=0.25;entryY=1;entryDx=0;entryDy=0;" parent="1" source="VEQ9uskIoEQG_5lfTTBm-54" target="VEQ9uskIoEQG_5lfTTBm-26" edge="1">
          <mxGeometry relative="1" as="geometry" />
        </mxCell>
        <mxCell id="VEQ9uskIoEQG_5lfTTBm-54" value="Equip" style="ellipse;whiteSpace=wrap;html=1;" parent="1" vertex="1">
          <mxGeometry x="460" y="450" width="110" height="30" as="geometry" />
        </mxCell>
        <mxCell id="VEQ9uskIoEQG_5lfTTBm-60" style="edgeStyle=orthogonalEdgeStyle;rounded=0;orthogonalLoop=1;jettySize=auto;html=1;exitX=0;exitY=0.5;exitDx=0;exitDy=0;entryX=0.75;entryY=0;entryDx=0;entryDy=0;" parent="1" source="VEQ9uskIoEQG_5lfTTBm-55" target="VEQ9uskIoEQG_5lfTTBm-26" edge="1">
          <mxGeometry relative="1" as="geometry" />
        </mxCell>
        <mxCell id="VEQ9uskIoEQG_5lfTTBm-55" value="Nom" style="ellipse;whiteSpace=wrap;html=1;" parent="1" vertex="1">
          <mxGeometry x="690" y="330" width="110" height="30" as="geometry" />
        </mxCell>
        <mxCell id="VEQ9uskIoEQG_5lfTTBm-57" value="" style="endArrow=none;html=1;rounded=0;entryX=0.022;entryY=0.617;entryDx=0;entryDy=0;entryPerimeter=0;exitX=1;exitY=0.5;exitDx=0;exitDy=0;" parent="1" source="VEQ9uskIoEQG_5lfTTBm-12" target="VEQ9uskIoEQG_5lfTTBm-26" edge="1">
          <mxGeometry width="50" height="50" relative="1" as="geometry">
            <mxPoint x="440" y="300" as="sourcePoint" />
            <mxPoint x="490" y="250" as="targetPoint" />
          </mxGeometry>
        </mxCell>
        <mxCell id="VEQ9uskIoEQG_5lfTTBm-58" value="(1,1)" style="text;html=1;strokeColor=none;fillColor=none;align=center;verticalAlign=middle;whiteSpace=wrap;rounded=0;" parent="1" vertex="1">
          <mxGeometry x="280" y="310" width="60" height="30" as="geometry" />
        </mxCell>
        <mxCell id="VEQ9uskIoEQG_5lfTTBm-59" value="&lt;span style=&quot;color: rgb(0, 0, 0); font-family: Helvetica; font-size: 12px; font-style: normal; font-variant-ligatures: normal; font-variant-caps: normal; font-weight: 400; letter-spacing: normal; orphans: 2; text-align: center; text-indent: 0px; text-transform: none; widows: 2; word-spacing: 0px; -webkit-text-stroke-width: 0px; background-color: rgb(251, 251, 251); text-decoration-thickness: initial; text-decoration-style: initial; text-decoration-color: initial; float: none; display: inline !important;&quot;&gt;(1,1)&lt;/span&gt;" style="text;whiteSpace=wrap;html=1;" parent="1" vertex="1">
          <mxGeometry x="520" y="370" width="60" height="40" as="geometry" />
        </mxCell>
        <mxCell id="VEQ9uskIoEQG_5lfTTBm-67" value="" style="endArrow=none;html=1;rounded=0;exitX=0.75;exitY=0;exitDx=0;exitDy=0;" parent="1" source="VEQ9uskIoEQG_5lfTTBm-12" edge="1">
          <mxGeometry width="50" height="50" relative="1" as="geometry">
            <mxPoint x="270" y="230" as="sourcePoint" />
            <mxPoint x="320" y="130" as="targetPoint" />
          </mxGeometry>
        </mxCell>
        <mxCell id="VEQ9uskIoEQG_5lfTTBm-70" value="(1,1)" style="text;html=1;strokeColor=none;fillColor=none;align=center;verticalAlign=middle;whiteSpace=wrap;rounded=0;" parent="1" vertex="1">
          <mxGeometry x="300" y="130" width="60" height="30" as="geometry" />
        </mxCell>
        <mxCell id="VEQ9uskIoEQG_5lfTTBm-71" value="(1,1)" style="text;html=1;strokeColor=none;fillColor=none;align=center;verticalAlign=middle;whiteSpace=wrap;rounded=0;" parent="1" vertex="1">
          <mxGeometry x="215" y="270" width="60" height="30" as="geometry" />
        </mxCell>
        <mxCell id="VEQ9uskIoEQG_5lfTTBm-72" value="" style="endArrow=none;html=1;rounded=0;" parent="1" edge="1">
          <mxGeometry width="50" height="50" relative="1" as="geometry">
            <mxPoint x="420" y="120" as="sourcePoint" />
            <mxPoint x="380" y="110" as="targetPoint" />
          </mxGeometry>
        </mxCell>
        <mxCell id="VEQ9uskIoEQG_5lfTTBm-74" value="" style="endArrow=none;html=1;rounded=0;exitX=1;exitY=1;exitDx=0;exitDy=0;" parent="1" source="VEQ9uskIoEQG_5lfTTBm-40" edge="1">
          <mxGeometry width="50" height="50" relative="1" as="geometry">
            <mxPoint x="590" y="210" as="sourcePoint" />
            <mxPoint x="640" y="160" as="targetPoint" />
          </mxGeometry>
        </mxCell>
        <mxCell id="VEQ9uskIoEQG_5lfTTBm-76" value="" style="endArrow=none;html=1;rounded=0;" parent="1" source="VEQ9uskIoEQG_5lfTTBm-40" edge="1">
          <mxGeometry width="50" height="50" relative="1" as="geometry">
            <mxPoint x="472" y="132" as="sourcePoint" />
            <mxPoint x="420" y="120" as="targetPoint" />
          </mxGeometry>
        </mxCell>
        <mxCell id="VEQ9uskIoEQG_5lfTTBm-77" value="(1,M)" style="text;html=1;strokeColor=none;fillColor=none;align=center;verticalAlign=middle;whiteSpace=wrap;rounded=0;" parent="1" vertex="1">
          <mxGeometry x="580" y="160" width="60" height="30" as="geometry" />
        </mxCell>
        <mxCell id="VEQ9uskIoEQG_5lfTTBm-78" value="(1,N)" style="text;html=1;strokeColor=none;fillColor=none;align=center;verticalAlign=middle;whiteSpace=wrap;rounded=0;" parent="1" vertex="1">
          <mxGeometry x="365" y="120" width="60" height="30" as="geometry" />
        </mxCell>
      </root>
    </mxGraphModel>
  </diagram>
</mxfile>
